<?xml version="1.0" encoding="utf-8"?>
<!-- Generator: Adobe Illustrator 21.1.0, SVG Export Plug-In . SVG Version: 6.00 Build 0)  -->
<svg version="1.1" id="Layer_1" xmlns="http://www.w3.org/2000/svg" xmlns:xlink="http://www.w3.org/1999/xlink" x="0px" y="0px"
	 viewBox="0 0 471.5 271.9" style="enable-background:new 0 0 471.5 271.9;" xml:space="preserve">
<style type="text/css">
	.st0{fill:#F9EBF4;}
</style>
<g>
	<rect class="st0" width="471.5" height="271.9"/>
	<g>
		<g>
			<path d="M66,206.9c1.1,2.2,2.6,3.9,4.5,5.3c1.9,1.3,4,2.3,6.6,3c2.5,0.6,5.1,1,7.8,1c1.8,0,3.8-0.2,5.8-0.5
				c2.1-0.3,4-0.9,5.8-1.8c1.8-0.9,3.3-2.1,4.5-3.6c1.2-1.5,1.8-3.4,1.8-5.8c0-2.5-0.8-4.5-2.4-6.1c-1.6-1.6-3.7-2.9-6.3-3.9
				c-2.6-1-5.5-1.9-8.8-2.7c-3.3-0.8-6.6-1.6-10-2.6c-3.5-0.9-6.8-1.9-10.1-3.2c-3.3-1.3-6.2-2.9-8.8-4.9c-2.6-2-4.7-4.5-6.3-7.5
				c-1.6-3-2.4-6.6-2.4-10.8c0-4.8,1-8.9,3-12.4c2-3.5,4.7-6.4,8-8.8c3.3-2.3,7-4.1,11.2-5.2c4.2-1.1,8.3-1.7,12.5-1.7
				c4.8,0,9.5,0.5,14,1.6c4.5,1.1,8.4,2.8,11.9,5.3c3.5,2.4,6.2,5.5,8.2,9.3c2,3.8,2.3,6.3,2.9,11.6H99.7c-0.5-2.5-0.8-3.1-1.8-4.8
				c-1-1.8-2.3-3.2-4-4.3c-1.6-1-3.5-1.8-5.6-2.2c-2.1-0.4-4.4-0.6-6.9-0.6c-1.6,0-3.3,0.2-4.9,0.5c-1.6,0.3-3.1,1-4.5,1.8
				c-1.3,0.9-2.4,1.9-3.3,3.2c-0.9,1.3-1.3,2.9-1.3,4.9c0,1.8,0.3,3.3,1,4.4c0.7,1.1,2.1,2.2,4.1,3.1c2,1,4.8,1.9,8.4,2.9
				c3.6,1,8.3,2.2,14.1,3.6c1.7,0.3,4.1,1,7.2,1.9c3.1,0.9,6.1,2.4,9.1,4.3c3,2,5.6,4.7,7.9,8c2.2,3.3,3.3,7.6,3.3,12.8
				c0,4.2-0.8,8.2-2.5,11.8c-1.6,3.6-4.1,6.8-7.3,9.4c-3.2,2.6-7.3,4.7-12.1,6.2c-4.8,1.5-10.4,2.2-16.7,2.2
				c-5.1,0-10.1-0.6-14.9-1.9c-4.8-1.3-9-3.2-12.7-5.9c-3.7-2.7-6.6-6.1-8.8-10.3c-2.2-4.2-3.2-9.1-3.1-14.8h19.7
				C64.3,202.1,64.8,204.8,66,206.9z"/>
			<path d="M182.6,229.8l-11.9-45h-0.3l-11.4,45h-19.1l-21.3-67.1h19.5l12.3,45.6h0.3l11.2-45.6h17.9l11.4,45.4h0.3l12.3-45.4h18.9
				l-21.2,67.1H182.6z"/>
			<path d="M222,183.3c0.3-4.3,1.3-7.9,3.2-10.8c1.9-2.9,4.3-5.1,7.3-6.9c2.9-1.7,6.2-3,9.9-3.7c3.7-0.7,7.4-1.1,11.1-1.1
				c3.4,0,6.8,0.2,10.3,0.7c3.5,0.5,6.6,1.4,9.5,2.8c2.9,1.4,5.2,3.3,7,5.8c1.8,2.5,2.7,5.7,2.7,9.8v34.9c0,3,0.2,5.9,0.5,8.7
				c0.3,2.8,1,4.8,1.8,6.2h-18.7c-0.3-1-0.6-2.1-0.8-3.2c-0.2-1.1-0.4-2.2-0.5-3.3c-2.9,3-6.4,5.1-10.4,6.4c-4,1.2-8,1.8-12.2,1.8
				c-3.2,0-6.2-0.4-9-1.2c-2.8-0.8-5.2-2-7.3-3.6c-2.1-1.6-3.7-3.7-4.9-6.2c-1.2-2.5-1.8-5.5-1.8-9c0-3.8,0.7-6.9,2-9.4
				c1.3-2.5,3.1-4.4,5.2-5.9c2.1-1.5,4.5-2.6,7.3-3.3c2.7-0.7,5.5-1.3,8.2-1.8c2.8-0.4,5.5-0.8,8.2-1c2.7-0.3,5.1-0.6,7.1-1.2
				c2.1-0.5,3.7-1.3,4.9-2.3c1.2-1,1.8-2.4,1.7-4.3c0-2-0.3-3.6-1-4.7c-0.6-1.2-1.5-2.1-2.6-2.7c-1.1-0.6-2.3-1.1-3.8-1.3
				c-1.4-0.2-3-0.3-4.6-0.3c-3.6,0-6.5,0.8-8.6,2.3c-2.1,1.6-3.3,4.2-3.6,7.8H222z M264.5,196.9c-0.8,0.7-1.8,1.2-2.9,1.6
				c-1.2,0.4-2.4,0.7-3.8,1c-1.3,0.3-2.7,0.5-4.2,0.6c-1.5,0.2-2.9,0.4-4.4,0.6c-1.4,0.3-2.7,0.6-4.1,1c-1.3,0.4-2.5,1-3.5,1.8
				c-1,0.7-1.8,1.7-2.4,2.8c-0.6,1.1-0.9,2.6-0.9,4.3c0,1.6,0.3,3,0.9,4.2c0.6,1.1,1.4,2,2.5,2.7s2.2,1.1,3.6,1.4
				c1.4,0.3,2.8,0.4,4.3,0.4c3.6,0,6.4-0.6,8.4-1.8c2-1.2,3.5-2.7,4.4-4.3c1-1.7,1.5-3.4,1.8-5.1c0.2-1.7,0.3-3.1,0.3-4.2V196.9z"/>
			<path d="M337.1,221.2c-2.2,3.6-5,6.3-8.5,7.9c-3.5,1.6-7.5,2.4-11.9,2.4c-5,0-9.4-1-13.2-2.9c-3.8-1.9-6.9-4.6-9.4-7.9
				c-2.5-3.3-4.3-7.2-5.6-11.5c-1.3-4.3-1.9-8.8-1.9-13.5c0-4.5,0.6-8.8,1.9-13c1.3-4.2,3.1-7.9,5.6-11.1c2.5-3.2,5.6-5.8,9.3-7.7
				c3.7-1.9,8-2.9,13-2.9c4,0,7.8,0.8,11.4,2.5c3.6,1.7,6.4,4.2,8.5,7.5h0.3v-33.7h18.4v92.7h-17.5v-8.6H337.1z M336.3,188
				c-0.5-2.6-1.4-4.8-2.7-6.7c-1.3-1.9-2.9-3.5-4.9-4.7c-2-1.2-4.5-1.8-7.5-1.8c-3,0-5.6,0.6-7.7,1.8c-2.1,1.2-3.7,2.8-5,4.8
				c-1.3,2-2.2,4.3-2.7,6.8c-0.6,2.6-0.8,5.2-0.8,8c0,2.6,0.3,5.2,0.9,7.8c0.6,2.6,1.6,4.9,2.9,6.9c1.3,2,3,3.7,5.1,4.9
				c2,1.3,4.5,1.9,7.3,1.9c3,0,5.6-0.6,7.6-1.8c2-1.2,3.7-2.8,4.9-4.9c1.2-2,2.1-4.3,2.6-6.9c0.5-2.6,0.8-5.3,0.8-8
				C337.1,193.3,336.8,190.6,336.3,188z"/>
			<path d="M408.6,221.2c-2.2,3.6-5,6.3-8.5,7.9c-3.5,1.6-7.5,2.4-11.9,2.4c-5,0-9.4-1-13.2-2.9c-3.8-1.9-6.9-4.6-9.4-7.9
				c-2.5-3.3-4.3-7.2-5.6-11.5c-1.3-4.3-1.9-8.8-1.9-13.5c0-4.5,0.6-8.8,1.9-13c1.3-4.2,3.1-7.9,5.6-11.1c2.5-3.2,5.6-5.8,9.3-7.7
				c3.7-1.9,8-2.9,13-2.9c4,0,7.8,0.8,11.4,2.5c3.6,1.7,6.4,4.2,8.5,7.5h0.3v-33.7h18.4v92.7h-17.5v-8.6H408.6z M407.8,188
				c-0.5-2.6-1.4-4.8-2.7-6.7c-1.3-1.9-2.9-3.5-4.9-4.7c-2-1.2-4.5-1.8-7.5-1.8c-3,0-5.6,0.6-7.7,1.8c-2.1,1.2-3.7,2.8-5,4.8
				c-1.3,2-2.2,4.3-2.7,6.8c-0.6,2.6-0.8,5.2-0.8,8c0,2.6,0.3,5.2,0.9,7.8c0.6,2.6,1.6,4.9,2.9,6.9c1.3,2,3,3.7,5.1,4.9
				c2,1.3,4.5,1.9,7.3,1.9c3,0,5.6-0.6,7.6-1.8c2-1.2,3.7-2.8,4.9-4.9c1.2-2,2.1-4.3,2.6-6.9c0.5-2.6,0.8-5.3,0.8-8
				C408.6,193.3,408.3,190.6,407.8,188z"/>
		</g>
		<g>
			<path d="M432.6,142c0.4-0.9,1-1.7,1.7-2.3c0.7-0.6,1.5-1.1,2.4-1.5c0.9-0.4,1.9-0.5,2.9-0.5c1,0,2,0.2,2.9,0.5
				c0.9,0.4,1.7,0.8,2.4,1.5c0.7,0.6,1.3,1.4,1.7,2.3c0.4,0.9,0.6,1.9,0.6,3.1c0,1.1-0.2,2.2-0.6,3.1c-0.4,0.9-1,1.7-1.7,2.3
				c-0.7,0.7-1.5,1.1-2.4,1.5c-0.9,0.3-1.9,0.5-2.9,0.5c-1,0-2-0.2-2.9-0.5c-0.9-0.3-1.7-0.8-2.4-1.5c-0.7-0.6-1.3-1.4-1.7-2.3
				s-0.6-1.9-0.6-3.1C432,143.9,432.2,142.9,432.6,142z M434.4,147.4c0.3,0.7,0.7,1.3,1.2,1.9c0.5,0.5,1.1,0.9,1.8,1.2
				c0.7,0.3,1.4,0.4,2.2,0.4c0.8,0,1.5-0.1,2.2-0.4c0.7-0.3,1.3-0.7,1.8-1.2c0.5-0.5,0.9-1.1,1.2-1.9c0.3-0.7,0.4-1.5,0.4-2.3
				s-0.1-1.6-0.4-2.3c-0.3-0.7-0.7-1.3-1.2-1.8c-0.5-0.5-1.1-0.9-1.8-1.2c-0.7-0.3-1.4-0.4-2.2-0.4c-0.8,0-1.5,0.1-2.2,0.4
				c-0.7,0.3-1.3,0.7-1.8,1.2c-0.5,0.5-0.9,1.1-1.2,1.8c-0.3,0.7-0.4,1.5-0.4,2.3S434.1,146.7,434.4,147.4z M439.8,140.9
				c1,0,1.9,0.2,2.4,0.6c0.6,0.4,0.8,1,0.8,1.9c0,0.4-0.1,0.7-0.2,1c-0.1,0.3-0.3,0.5-0.5,0.7c-0.2,0.2-0.4,0.3-0.7,0.4
				c-0.3,0.1-0.6,0.2-0.9,0.2l2.2,3.6h-1.7l-2-3.6h-1v3.6h-1.7v-8.3H439.8z M439.8,144.3c0.5,0,0.9-0.1,1.2-0.2
				c0.3-0.1,0.5-0.4,0.5-1c0-0.2-0.1-0.4-0.2-0.5c-0.1-0.1-0.2-0.2-0.4-0.3c-0.2-0.1-0.4-0.1-0.6-0.1c-0.2,0-0.4,0-0.6,0h-1.4v2.2
				H439.8z"/>
		</g>
	</g>
</g>
</svg>
